<svg width="618" height="454" viewBox="0 0 618 454" fill="none" xmlns="http://www.w3.org/2000/svg">
<g opacity="0.52">
<path d="M584.674 88.0174C584.674 88.0174 544.558 12.6498 455.967 1.48732C367.376 -9.67519 305.627 44.7524 240.351 72.6669C206.22 87.2754 167.225 81.6035 130.984 88.6769C15.1053 111.299 -28.539 253.048 19.7219 333.659C61.503 403.437 135.139 439.727 247.045 448.103C358.95 456.479 437.533 466.24 537.864 397.814C638.194 329.388 631.467 187.111 584.674 88.0174Z" fill="#FF6423"/>
<path opacity="0.8" d="M584.674 88.0174C584.674 88.0174 544.558 12.6498 455.967 1.48732C367.376 -9.67519 305.627 44.7524 240.351 72.6669C206.22 87.2754 167.225 81.6035 130.984 88.6769C15.1053 111.299 -28.539 253.048 19.7219 333.659C61.503 403.437 135.139 439.727 247.045 448.103C358.95 456.479 437.533 466.24 537.864 397.814C638.194 329.388 631.467 187.111 584.674 88.0174Z" fill="white"/>
</g>
<g opacity="0.07">
<g opacity="0.07">
<path opacity="0.07" d="M512.725 205.388C518.306 215.619 526.508 225.259 527.184 236.759C528.283 255.277 510.273 269.144 502.916 286.309C493.868 307.364 501.479 332.14 493.446 353.533C487.611 369.007 473.406 381.437 456.663 385.495C444.149 388.539 430.958 387.187 418.02 387.271C381.322 387.609 344.709 400.293 308.434 394.543C290.507 391.668 273.596 384.396 255.67 382.113C234.108 379.323 208.994 382.705 193.604 368.077C172.042 347.614 188.024 309.985 171.873 285.464C166.631 277.515 158.259 271.343 155.469 262.464C152.171 251.979 157.498 240.902 164.094 231.939C170.689 223.06 178.891 214.858 182.443 204.458C185.656 195.072 183.711 184.84 179.737 175.708C173.649 161.671 190.645 129.54 224.468 131.992C239.942 133.091 246.96 115.165 263.956 110.176C283.405 104.511 307.842 109.077 322.132 113.812C336.676 118.632 354.687 121.168 363.058 108.823C374.811 91.3195 409.987 88.6137 425.8 117.025C431.55 127.341 436.708 135.459 448.968 134.613C515.431 130.301 504.354 190.252 512.725 205.388ZM331.518 109.584C331.518 111.952 331.518 116.01 342.003 115.334C345.216 115.165 347.838 113.389 347.838 111.021C347.838 108.654 345.216 106.709 342.003 106.709C338.79 106.794 331.518 105.779 331.518 109.584ZM228.273 121.168C227.935 121.337 227.766 121.676 227.597 122.014C226.92 123.029 225.736 123.705 224.553 124.212C223.876 124.466 223.115 124.72 222.608 125.227C221.762 126.073 221.847 127.595 222.777 128.271C223.538 128.863 224.553 128.948 225.567 128.863C229.203 128.694 232.755 127.341 235.63 125.143C239.266 122.183 230.302 120.069 228.273 121.168ZM218.295 126.58C217.027 125.734 215.505 126.242 214.237 126.834C213.983 127.003 213.729 127.172 213.645 127.426C213.475 128.018 214.236 128.44 214.828 128.609C215.759 128.863 216.773 129.201 217.703 128.863C218.633 128.609 219.564 127.426 218.295 126.58ZM171.958 202.428C171.028 199.638 168.914 198.285 165.616 199.891C163.671 200.822 162.318 202.597 161.134 204.373C159.274 207.248 157.667 210.461 158.09 213.759C158.344 216.211 159.781 218.494 161.811 219.932C162.656 220.524 163.671 220.946 164.686 220.946C165.87 220.946 166.884 220.27 167.814 219.593C169.928 217.987 171.535 215.788 173.142 213.759C173.987 212.66 174.833 211.476 175.002 210.207C175.425 207.248 172.803 204.965 171.958 202.428ZM511.879 287.831C511.034 288.17 510.188 288.592 509.765 289.353C509.427 289.945 509.258 290.622 509.258 291.298C509.089 292.736 509.004 294.089 509.004 295.526C509.004 297.048 509.173 298.739 510.357 299.839C511.964 301.276 514.501 300.769 516.53 300.177C517.714 299.839 518.982 299.5 519.743 298.57C520.335 297.894 520.504 297.048 520.673 296.203C521.181 293.412 522.703 289.184 521.011 287.662C519.151 286.14 514.839 286.648 511.879 287.831ZM394.429 396.403C394.006 396.826 393.583 397.249 393.329 397.756C392.653 399.194 393.329 401.054 394.852 401.646C395.613 401.984 396.458 401.984 397.304 401.9C404.322 401.815 411.848 401.561 417.428 397.503C418.105 396.995 418.781 396.319 418.697 395.558C418.528 394.543 417.344 394.12 416.329 393.951C409.311 392.683 400.01 391.161 394.429 396.403ZM261.673 385.58C255.585 384.734 245.946 383.635 245.946 388.539C245.946 390.4 254.57 392.175 255.923 392.514C260.32 393.613 264.464 395.135 268.692 396.742C276.64 399.701 283.066 395.727 276.725 391.245C271.567 387.609 266.578 386.256 261.673 385.58Z" fill="#2A94F4"/>
</g>
</g>
<g opacity="0.51">
<path opacity="0.51" d="M415.568 324.529C413.623 320.809 418.105 316.835 422.248 316.074C426.391 315.313 431.042 315.905 434.255 313.283C438.652 309.816 438.399 302.291 443.218 299.5C447.108 297.302 452.266 299.416 456.325 297.64C461.398 295.442 462.836 288.339 467.909 285.971C471.883 284.026 477.126 286.225 479.155 290.114C481.185 294.004 480.255 299.078 477.464 302.544C475.266 305.166 471.968 307.111 470.615 310.239C468.501 315.228 471.883 321.232 469.854 326.305C466.218 335.606 448.968 332.816 445.924 342.371C445.248 344.485 445.501 346.768 445.332 349.051C444.825 355.647 440.174 361.397 434.424 364.694C428.674 367.992 421.91 369.091 415.314 369.599C412.609 369.768 409.734 369.852 407.366 368.584C405.083 367.4 403.561 365.286 402.293 363.003C394.344 348.713 391.046 329.941 415.568 324.529Z" fill="#E27253"/>
</g>
<g opacity="0.51">
<path opacity="0.51" d="M286.787 311.592C289.493 307.195 284.419 301.953 279.43 300.684C274.441 299.416 268.776 299.669 264.971 296.203C259.982 291.552 260.912 282.335 255.247 278.53C250.681 275.486 244.254 277.6 239.35 275.063C233.262 271.935 232.247 263.056 226.328 259.674C221.593 256.968 214.997 259.082 212.122 263.732C209.247 268.383 209.924 274.64 213.053 279.122C215.505 282.589 219.31 285.21 220.747 289.184C222.946 295.442 218.211 302.544 220.155 308.886C223.791 320.64 245.184 318.78 247.89 330.787C248.482 333.493 247.975 336.198 247.975 338.989C247.975 347.106 253.133 354.632 259.897 359.198C266.662 363.764 274.78 365.794 282.813 366.977C286.11 367.485 289.577 367.823 292.621 366.47C295.496 365.286 297.61 362.749 299.386 360.128C310.463 343.132 316.213 320.471 286.787 311.592Z" fill="#E27253"/>
</g>
<path d="M463.681 108.316L457.762 110.345L455.226 102.989C450.49 89.3748 435.524 82.1028 421.91 86.838C408.296 91.5733 401.024 106.54 405.759 120.154L408.296 127.51L402.377 129.54C397.726 131.146 395.274 136.22 396.881 140.87L413.539 188.984C415.145 193.634 420.303 196.171 424.869 194.564L486.089 173.34C490.74 171.734 493.277 166.576 491.67 161.925L475.012 113.812C473.49 109.161 468.417 106.624 463.681 108.316ZM417.006 116.18C414.384 108.738 418.359 100.536 425.8 97.9151C433.241 95.2938 441.443 99.268 444.064 106.794L446.601 114.15L419.542 123.536L417.006 116.18ZM452.52 160.065L456.748 172.326C456.917 172.833 456.579 173.34 456.071 173.594L450.152 175.623C449.729 175.793 449.137 175.539 448.968 175.032L444.74 162.771C440.174 162.602 435.946 159.727 434.34 155.076C432.311 149.157 435.439 142.646 441.358 140.532C447.277 138.503 453.788 141.631 455.902 147.55C457.509 152.201 455.987 157.105 452.52 160.065Z" fill="#E27253"/>
<path d="M400.179 346.514C406.183 343.978 411.51 339.158 415.991 334.592C427.998 322.162 435.44 306.011 439.414 289.269C442.965 274.133 443.726 258.575 443.05 243.101C442.965 241.832 440.936 241.748 441.02 243.101C442.712 277.854 435.778 320.386 404.745 341.526C402.969 342.709 401.194 343.893 399.249 344.739C397.981 345.246 398.995 347.022 400.179 346.514Z" fill="#E27253"/>
<path d="M439.667 283.434C439.667 283.434 441.612 272.188 456.494 270.413C456.579 270.413 451.083 283.688 439.667 283.434Z" fill="#E27253"/>
<path d="M434.848 300.008C434.848 300.008 439.414 289.523 454.296 291.298C454.211 291.298 445.84 302.967 434.848 300.008Z" fill="#E27253"/>
<path d="M428.506 314.721C428.506 314.721 435.271 305.504 449.392 310.577C449.392 310.577 438.568 320.048 428.506 314.721Z" fill="#E27253"/>
<path d="M441.951 265.931C441.951 265.931 443.895 254.854 458.524 253.163C458.524 253.163 453.197 266.269 441.951 265.931Z" fill="#E27253"/>
<path d="M442.204 246.736C442.204 246.736 433.833 239.211 440.175 225.851C440.175 225.935 448.377 237.351 442.204 246.736Z" fill="#E27253"/>
<path d="M442.204 258.152C442.204 258.152 431.127 256.122 429.521 241.494C429.605 241.409 442.627 246.906 442.204 258.152Z" fill="#E27253"/>
<path d="M441.105 274.979C441.105 274.979 430.028 272.949 428.421 258.321C428.506 258.321 441.528 263.733 441.105 274.979Z" fill="#E27253"/>
<path d="M438.23 290.791C438.23 290.791 427.322 288.001 426.815 273.288C426.815 273.203 439.414 279.545 438.23 290.791Z" fill="#E27253"/>
<path d="M433.241 306.519C433.241 306.519 422.333 303.728 421.826 289.015C421.826 289.015 434.425 295.357 433.241 306.519Z" fill="#E27253"/>
<path d="M287.041 342.287C281.037 339.75 275.71 334.93 271.228 330.364C259.221 317.934 251.78 301.783 247.806 285.041C244.254 269.905 243.493 254.347 244.17 238.873C244.254 237.604 246.284 237.52 246.199 238.873C244.508 273.626 251.442 316.158 282.474 337.298C284.25 338.481 286.026 339.665 287.971 340.511C289.239 341.018 288.224 342.794 287.041 342.287Z" fill="#E27253"/>
<path d="M247.552 279.207C247.552 279.207 245.607 267.96 230.725 266.185C230.64 266.185 236.137 279.46 247.552 279.207Z" fill="#E27253"/>
<path d="M252.456 295.78C252.456 295.78 247.89 285.295 233.008 287.07C233.008 287.07 241.379 298.739 252.456 295.78Z" fill="#E27253"/>
<path d="M258.798 310.493C258.798 310.493 252.033 301.276 237.912 306.35C237.828 306.35 248.651 315.82 258.798 310.493Z" fill="#E27253"/>
<path d="M245.269 261.703C245.269 261.703 243.324 250.626 228.696 248.935C228.696 248.935 234.023 262.041 245.269 261.703Z" fill="#E27253"/>
<path d="M245.1 242.509C245.1 242.509 253.471 234.983 247.129 221.623C247.129 221.707 238.842 233.123 245.1 242.509Z" fill="#E27253"/>
<path d="M245.015 253.924C245.015 253.924 256.092 251.894 257.699 237.266C257.699 237.181 244.592 242.678 245.015 253.924Z" fill="#E27253"/>
<path d="M246.114 270.751C246.114 270.751 257.191 268.721 258.798 254.093C258.798 254.093 245.691 259.505 246.114 270.751Z" fill="#E27253"/>
<path d="M248.989 286.563C248.989 286.563 259.897 283.773 260.405 269.06C260.405 268.975 247.806 275.317 248.989 286.563Z" fill="#E27253"/>
<path d="M253.978 302.291C253.978 302.291 264.886 299.5 265.393 284.787C265.393 284.787 252.794 291.129 253.978 302.291Z" fill="#E27253"/>
<path d="M394.091 371.713H298.287C288.394 371.713 280.445 363.68 280.445 353.871V131.738C280.445 121.845 288.478 113.896 298.287 113.896H394.006C403.899 113.896 411.848 121.929 411.848 131.738V353.871C411.932 363.68 403.899 371.713 394.091 371.713Z" fill="#2A94F4"/>
<path d="M393.33 362.58H299.048C292.115 362.58 286.534 357 286.534 350.066V133.937C286.534 127.003 292.115 121.422 299.048 121.422H393.33C400.264 121.422 405.845 127.003 405.845 133.937V350.066C405.845 357 400.264 362.58 393.33 362.58Z" fill="#F7F7F7"/>
<path d="M381.915 121.422H374.135C371.768 121.422 369.823 123.367 369.823 125.735V128.779C369.823 131.146 367.878 133.091 365.51 133.091H330.926C328.559 133.091 326.614 131.146 326.614 128.779V125.735C326.614 123.367 324.669 121.422 322.301 121.422H300.232V119.224H381.915V121.422Z" fill="#2A94F4"/>
<path opacity="0.17" d="M344.54 223.06C354.067 223.06 361.79 215.337 361.79 205.811C361.79 196.284 354.067 188.561 344.54 188.561C335.013 188.561 327.29 196.284 327.29 205.811C327.29 215.337 335.013 223.06 344.54 223.06Z" fill="#2A94F4"/>
<path d="M351.22 201.836C351.22 205.557 348.26 208.516 344.54 208.516C340.819 208.516 337.86 205.557 337.86 201.836C337.86 198.116 340.819 195.156 344.54 195.156C348.26 195.156 351.22 198.116 351.22 201.836ZM354.602 229.318V219.763C354.602 214.435 350.29 210.038 344.878 210.038H344.117C338.79 210.038 334.393 214.351 334.393 219.763V229.318C334.393 230.84 335.577 232.023 337.099 232.023H351.896C353.418 232.023 354.602 230.84 354.602 229.318Z" fill="#2A94F4"/>
<path opacity="0.17" d="M385.889 242.762H303.191C299.386 242.762 296.342 239.718 296.342 235.913C296.342 232.108 299.386 229.064 303.191 229.064H385.889C389.694 229.064 392.738 232.108 392.738 235.913C392.738 239.634 389.694 242.762 385.889 242.762Z" fill="#2A94F4"/>
<path d="M383.014 237.689H306.066C305.052 237.689 304.291 236.928 304.291 235.913C304.291 234.898 305.052 234.137 306.066 234.137H383.014C384.029 234.137 384.79 234.898 384.79 235.913C384.79 236.843 384.029 237.689 383.014 237.689Z" fill="#2A94F4"/>
<path opacity="0.17" d="M385.973 267.284H303.276C299.471 267.284 296.427 264.24 296.427 260.435C296.427 256.63 299.471 253.586 303.276 253.586H385.973C389.779 253.586 392.823 256.63 392.823 260.435C392.823 264.24 389.694 267.284 385.973 267.284Z" fill="#2A94F4"/>
<path d="M305.389 262.38C304.375 262.38 303.614 261.619 303.614 260.604C303.614 259.589 304.375 258.828 305.389 258.828C306.404 258.828 307.165 259.589 307.165 260.604C307.165 261.619 306.32 262.38 305.389 262.38ZM312.492 260.604C312.492 259.589 311.731 258.828 310.717 258.828C309.702 258.828 308.941 259.589 308.941 260.604C308.941 261.619 309.702 262.38 310.717 262.38C311.647 262.38 312.492 261.619 312.492 260.604ZM317.735 260.604C317.735 259.589 316.974 258.828 315.959 258.828C314.944 258.828 314.183 259.589 314.183 260.604C314.183 261.619 314.944 262.38 315.959 262.38C316.974 262.38 317.735 261.619 317.735 260.604ZM323.062 260.604C323.062 259.589 322.301 258.828 321.286 258.828C320.272 258.828 319.511 259.589 319.511 260.604C319.511 261.619 320.272 262.38 321.286 262.38C322.301 262.38 323.062 261.619 323.062 260.604ZM328.389 260.604C328.389 259.589 327.628 258.828 326.613 258.828C325.599 258.828 324.838 259.589 324.838 260.604C324.838 261.619 325.599 262.38 326.613 262.38C327.628 262.38 328.389 261.619 328.389 260.604ZM333.716 260.604C333.716 259.589 332.955 258.828 331.941 258.828C330.926 258.828 330.165 259.589 330.165 260.604C330.165 261.619 330.926 262.38 331.941 262.38C332.871 262.38 333.716 261.619 333.716 260.604ZM339.043 260.604C339.043 259.589 338.282 258.828 337.268 258.828C336.253 258.828 335.492 259.589 335.492 260.604C335.492 261.619 336.253 262.38 337.268 262.38C338.198 262.38 339.043 261.619 339.043 260.604Z" fill="#2A94F4"/>
<path d="M231.993 346.514C231.993 346.514 230.218 356.323 229.795 358.014C229.457 359.367 228.442 360.382 227.427 361.396C227.089 361.735 226.835 362.411 226.666 362.919C226.497 363.341 226.582 363.849 226.835 364.271C231.317 371.459 240.703 372.812 240.787 372.22C240.957 371.121 239.181 369.26 237.151 368.499C235.122 367.823 233.6 365.963 233.093 363.849C232.67 362.158 232.67 360.382 233.177 358.691L235.376 351.165L231.993 346.514Z" fill="#B97A59"/>
<path d="M226.498 347.614L228.696 357.507C229.373 360.551 228.95 363.68 227.512 366.47C226.667 367.992 227.428 369.937 229.035 370.529C234.362 372.389 244.593 376.025 245.016 375.602C247.384 373.657 241.211 370.36 236.645 366.977C233.601 364.694 232.417 353.871 232.163 345.669L227.259 346.937C226.921 346.937 226.582 347.191 226.498 347.614Z" fill="#B97A59"/>
<path d="M235.63 369.768C237.828 370.529 240.196 370.698 242.394 371.036C242.648 371.036 242.902 371.205 243.071 371.29C245.185 372.896 246.284 374.587 245.016 375.602C244.508 376.025 232.417 371.713 227.766 370.106C226.751 369.768 226.328 368.584 226.836 367.654L227.766 365.963C230.218 367.485 232.839 368.838 235.63 369.768Z" fill="#0B4870"/>
<path d="M228.78 246.314C223.2 248.258 219.733 255.869 222.27 262.971C223.707 267.115 230.725 281.405 237.574 292.482C240.196 296.71 240.534 302.037 238.251 306.434C237.913 307.11 237.574 307.872 237.321 308.633C236.222 312.353 233.347 333.323 231.909 347.275C232.586 348.882 234.023 350.911 235.46 351.334C240.365 338.735 247.806 316.074 248.99 312.099C249.666 309.901 250.343 307.449 250.765 305.081C254.148 297.978 246.199 263.902 243.832 257.222C241.295 250.203 234.277 244.369 228.78 246.314Z" fill="#0B4870"/>
<path d="M232.247 206.825C237.197 206.825 241.21 201.639 241.21 195.241C241.21 188.843 237.197 183.656 232.247 183.656C227.297 183.656 223.284 188.843 223.284 195.241C223.284 201.639 227.297 206.825 232.247 206.825Z" fill="#0B4870"/>
<path d="M230.133 196.425C229.964 189.998 224.806 184.587 218.38 184.248C212.714 183.91 207.81 187.377 205.95 192.366C205.273 194.142 203.582 195.241 201.722 195.241C200.961 195.241 200.2 195.325 199.354 195.495C194.704 196.425 190.983 200.399 190.56 205.219C190.138 209.531 192.167 213.336 195.38 215.535C196.733 216.465 197.579 217.987 197.748 219.678C198.847 227.288 205.781 232.954 213.729 232.023C220.494 231.262 225.99 225.682 226.582 218.832C226.92 214.689 225.483 210.799 222.946 207.924C227.258 205.98 230.218 201.498 230.133 196.425Z" fill="#0B4870"/>
<path d="M232.248 179.851C232.248 179.851 237.321 183.065 236.645 187.292C236.645 187.292 239.35 185.348 239.942 178.837C240.45 174.271 232.248 179.851 232.248 179.851Z" fill="#0B4870"/>
<path d="M240.449 202.428C243.155 203.781 245.861 204.88 248.651 205.557C251.442 206.233 254.317 206.233 257.276 205.81C260.32 205.388 263.449 204.542 266.831 203.95C270.214 203.358 273.765 203.189 277.063 203.697C277.655 203.781 278.077 204.373 277.993 204.965C277.908 205.472 277.486 205.895 276.978 205.895C273.765 206.064 270.806 206.656 267.761 207.755C264.802 208.77 261.758 210.123 258.376 211.138C254.993 212.152 251.188 212.575 247.552 212.152C243.916 211.73 240.449 210.715 237.152 209.362C235.207 208.601 234.192 206.318 234.953 204.373C235.714 202.428 237.997 201.413 239.942 202.175C240.027 202.175 240.111 202.259 240.196 202.259L240.449 202.428Z" fill="#B97A59"/>
<path d="M237.913 228.134C239.942 222.046 244.001 209.108 243.662 204.965C243.409 202.259 241.21 200.23 238.504 200.23H220.832C217.957 200.23 215.505 202.513 215.42 205.472C215.251 210.546 217.619 222.13 218.972 228.218H237.913V228.134Z" fill="#E27253"/>
<path d="M232.078 347.698C232.332 347.529 232.501 347.191 232.501 346.853C232.162 333.915 231.317 317.427 231.063 314.298C231.063 313.96 230.979 313.621 230.894 313.199C233.685 297.894 234.107 265.085 234.361 259.336C234.699 251.81 230.133 243.27 224.299 242.931C218.38 242.678 212.038 248.766 210.178 255.7C208.909 260.266 213.729 284.618 218.971 302.291C220.071 306.011 220.24 309.901 219.648 313.706C219.225 316.327 219.141 319.118 219.31 321.147C219.563 324.276 223.03 336.875 226.328 347.783C226.413 348.121 226.666 348.375 227.004 348.375C228.78 348.797 230.471 348.713 232.078 347.698Z" fill="#0B4870"/>
<path d="M217.027 235.828C217.957 233.292 218.211 230.501 217.788 227.88C216.943 221.623 215.336 209.954 215.505 204.965C215.59 202.259 217.788 200.23 220.41 200.23H223.031C224.046 202.513 226.159 204.288 229.373 204.288C232.67 204.288 234.7 202.513 235.714 200.23H238.167C235.545 205.895 236.475 213.421 241.042 217.818C240.196 220.862 239.435 223.821 238.928 226.273C238.167 229.571 238.505 233.038 239.858 236.167C242.141 241.578 243.917 250.203 243.325 253.67C224.807 258.913 212.038 249.611 212.038 249.611L217.027 235.828Z" fill="#E27253"/>
<path d="M232.248 201.414L224.299 200.568L226.836 191.859L231.994 192.45L232.248 201.414Z" fill="#B97A59"/>
<path d="M231.994 192.45L226.836 191.774L226.075 194.48C227.259 195.748 228.696 198.623 230.556 198.623C231.148 198.623 231.656 198.454 232.163 198.116L231.994 192.45Z" fill="#AA6B4F"/>
<path d="M232.163 196.678C230.387 196.678 228.527 195.833 225.905 193.55C224.383 192.281 223.284 189.998 223.284 188.392V179.851H236.391C236.391 179.851 237.405 184.417 236.391 188.899C235.714 192.281 233.516 196.678 232.163 196.678Z" fill="#B97A59"/>
<path d="M225.483 186.785C225.483 188.476 224.722 189.829 223.707 189.829C222.692 189.829 221.678 187.631 221.678 186.024C221.678 184.333 222.777 183.826 223.707 183.826C224.722 183.741 225.483 185.094 225.483 186.785Z" fill="#B97A59"/>
<path d="M221.677 180.866C221.677 178.245 223.876 176.046 226.497 176.046H230.894C232.162 176.046 233.431 175.708 234.446 175.116C235.968 174.271 237.997 174.524 239.012 175.962C240.195 177.484 240.703 179.598 237.743 181.543C236.306 182.473 234.192 181.458 232.754 181.881C232.67 181.881 232.585 181.881 232.501 181.881H228.611C227.258 181.881 226.243 182.98 226.159 184.333C226.159 185.178 225.398 185.855 224.552 185.855H224.383L223.791 183.826L221.593 186.785V180.866H221.677Z" fill="#0B4870"/>
<path d="M281.714 202.766C281.714 202.766 279.6 206.91 278.162 206.656C276.725 206.402 275.71 206.064 275.964 203.866C276.217 201.752 277.57 198.877 278.67 197.355C279.769 195.833 282.813 194.057 283.32 194.057C284.927 194.142 282.559 196.678 281.46 198.031C280.361 199.3 279.261 200.906 280.023 201.244C280.784 201.583 282.728 198.961 283.743 199.046C284.758 199.13 281.714 202.766 281.714 202.766Z" fill="#B97A59"/>
<path d="M235.461 179.682C235.038 181.627 235.63 182.726 229.288 185.77C222.862 188.814 220.917 187.546 218.888 190.759C218.888 190.759 219.733 185.348 223.285 183.487C226.836 181.627 232.924 180.443 234.869 176.131C234.869 176.131 235.715 178.414 235.461 179.682Z" fill="#0B4870"/>
<path d="M220.832 208.178C220.494 208.432 220.24 208.601 219.987 208.855C219.733 209.024 219.479 209.193 219.226 209.362C218.718 209.7 218.211 210.038 217.703 210.292C216.689 210.884 215.59 211.391 214.49 211.899C212.292 212.829 209.924 213.421 207.557 213.843C202.737 214.52 197.832 213.843 193.435 212.152C191.237 211.307 189.208 210.208 187.263 208.939C185.318 207.671 183.542 206.233 181.851 204.711C178.553 201.667 175.678 198.116 173.226 194.48C172.973 194.057 173.057 193.55 173.48 193.296C173.818 193.042 174.325 193.127 174.579 193.465C177.539 196.678 180.583 199.638 183.965 202.175C187.347 204.627 190.983 206.741 194.873 207.84C196.818 208.347 198.763 208.77 200.707 208.855C202.652 208.939 204.597 208.77 206.542 208.432C208.487 208.094 210.347 207.417 212.123 206.656C212.968 206.233 213.898 205.811 214.744 205.303C215.167 205.05 215.59 204.796 215.928 204.542C216.097 204.373 216.351 204.288 216.52 204.119L217.027 203.781L217.196 203.612C218.465 202.597 220.325 202.851 221.339 204.119C222.27 205.388 222.1 207.163 220.832 208.178Z" fill="#B97A59"/>
<path d="M234.192 180.105C234.192 180.105 234.446 186.701 240.196 189.829C240.196 189.829 237.659 184.84 237.828 181.627C237.997 178.329 233.854 177.822 234.192 180.105Z" fill="#0B4870"/>
<path d="M225.229 366.977C224.806 366.639 224.637 365.963 224.891 365.455C225.145 365.033 225.736 363.933 226.159 363.088C226.328 362.749 226.836 362.665 227.089 363.003C229.964 366.808 233.939 369.345 238.42 369.007C240.027 369.683 241.38 371.628 241.211 372.558C241.211 372.727 239.266 373.235 236.983 372.474C227.005 369.176 225.229 366.977 225.229 366.977Z" fill="#0B4870"/>
<path d="M174.917 190.59C174.917 190.59 177.708 194.311 176.862 195.579C176.017 196.847 175.171 197.524 173.395 196.34C171.535 195.156 169.59 192.704 168.66 190.928C167.73 189.153 167.561 185.686 167.73 185.263C168.575 183.826 169.844 187.123 170.52 188.73C171.197 190.337 172.127 192.028 172.803 191.436C173.48 190.928 171.873 187.969 172.465 187.123C173.057 186.193 174.917 190.59 174.917 190.59Z" fill="#B97A59"/>
<path d="M221.509 146.028L216.012 140.025L148.705 201.583C144.054 198.623 138.135 197.862 132.554 199.976C123.253 203.528 118.602 213.928 122.238 223.229C125.874 232.531 136.19 237.181 145.491 233.546C154.793 229.994 159.443 219.593 155.807 210.292C155.554 209.616 155.215 208.939 154.877 208.263L205.865 160.657L211.954 166.66L218.042 160.488L213.222 155.668L215.082 153.469L220.071 157.951L224.299 153.131L219.056 148.311L221.509 146.028ZM143.208 227.626C137.205 229.91 130.356 226.95 128.072 220.862C125.789 214.858 128.749 208.009 134.837 205.726C140.841 203.443 147.69 206.402 149.973 212.491C152.256 218.579 149.212 225.343 143.208 227.626Z" fill="#E27253"/>
</svg>
