<svg width="674" height="674" viewBox="0 0 674 674" fill="none" xmlns="http://www.w3.org/2000/svg">
<path d="M168.81 524.696C261.701 568.964 412.299 568.977 505.19 524.696C598.081 480.414 598.067 408.646 505.19 364.378C412.313 320.11 261.701 320.11 168.81 364.378C75.9194 408.646 75.9329 480.427 168.81 524.696Z" fill="#F5F5F5"/>
<path d="M504.866 491.98C521.975 491.98 535.844 485.371 535.844 477.219C535.844 469.067 521.975 462.458 504.866 462.458C487.758 462.458 473.889 469.067 473.889 477.219C473.889 485.371 487.758 491.98 504.866 491.98Z" fill="#EBEBEB"/>
<path d="M161.76 479.335L172.719 473.013C178.838 468.02 183.495 461.467 186.199 454.047C189.583 444.719 189.111 437.628 186.684 434.069C183.705 429.688 175.981 430.457 175.671 439.677C175.024 457.848 169.727 470.452 161.76 479.335Z" fill="#E27253"/>
<path opacity="0.2" d="M161.76 479.335L172.719 473.013C178.838 468.02 183.495 461.467 186.199 454.047C189.583 444.719 189.111 437.628 186.684 434.069C183.705 429.688 175.981 430.457 175.671 439.677C175.024 457.848 169.727 470.452 161.76 479.335Z" fill="black"/>
<path d="M161.76 480.009C161.617 480.007 161.479 479.961 161.365 479.875C161.25 479.79 161.166 479.67 161.124 479.534C161.082 479.397 161.084 479.251 161.131 479.116C161.177 478.981 161.265 478.864 161.383 478.783C186.725 461.259 181.818 436.819 181.764 436.577C181.746 436.488 181.745 436.397 181.761 436.308C181.778 436.219 181.812 436.134 181.862 436.059C181.911 435.983 181.975 435.918 182.05 435.867C182.124 435.816 182.208 435.78 182.297 435.761C182.385 435.743 182.477 435.742 182.565 435.758C182.654 435.775 182.739 435.809 182.815 435.858C182.891 435.908 182.956 435.972 183.007 436.046C183.058 436.121 183.094 436.205 183.112 436.294C183.112 436.55 188.289 461.825 162.191 479.888C162.065 479.974 161.913 480.017 161.76 480.009Z" fill="white"/>
<path d="M139.801 492.02C139.801 492.02 135.986 488.92 136.903 484.714C137.819 480.508 140.286 477.489 136.067 472.07C131.848 466.651 130.675 459.425 135.717 455.516C139.558 452.483 145.557 456.77 147.714 448.776C149.304 442.926 148.765 429.972 156.22 425.658C163.674 421.344 168.352 427.842 167.179 436.631C166.154 444.49 164.699 452.052 165.831 454.155C168.015 458.199 171.749 457.646 171.573 465.033C171.425 471.908 164.914 477.596 164.914 477.596L139.801 492.02Z" fill="#E27253"/>
<path d="M152.324 485.428C152.159 485.427 152 485.366 151.877 485.257C151.753 485.148 151.672 484.998 151.65 484.835C149.722 468.861 154.346 441.281 158.12 433.085C158.152 432.994 158.203 432.911 158.27 432.842C158.336 432.772 158.417 432.718 158.506 432.682C158.596 432.646 158.692 432.63 158.788 432.635C158.884 432.639 158.978 432.664 159.064 432.708C159.144 432.744 159.217 432.796 159.277 432.861C159.337 432.926 159.383 433.002 159.413 433.084C159.444 433.167 159.457 433.256 159.452 433.344C159.448 433.432 159.426 433.518 159.387 433.598C155.653 441.686 151.192 469.347 153.038 484.619C153.057 484.796 153.006 484.973 152.894 485.112C152.783 485.251 152.622 485.341 152.445 485.361L152.324 485.428Z" fill="white"/>
<path d="M151.96 472.986C151.857 472.991 151.754 472.968 151.663 472.919C146.986 470.641 144.02 462.512 143.899 462.135C143.866 462.051 143.85 461.961 143.852 461.871C143.854 461.781 143.875 461.692 143.912 461.61C143.949 461.528 144.002 461.454 144.068 461.393C144.134 461.332 144.212 461.284 144.297 461.254C144.382 461.223 144.472 461.21 144.562 461.215C144.652 461.219 144.74 461.242 144.821 461.281C144.902 461.321 144.974 461.376 145.033 461.444C145.093 461.512 145.138 461.591 145.166 461.676C145.166 461.757 148.064 469.63 152.257 471.665C152.394 471.732 152.505 471.843 152.571 471.981C152.637 472.119 152.654 472.275 152.619 472.424C152.585 472.573 152.501 472.705 152.381 472.8C152.261 472.895 152.113 472.946 151.96 472.946V472.986Z" fill="white"/>
<path d="M151.879 478.378C151.744 478.378 151.612 478.337 151.501 478.26C151.39 478.183 151.306 478.074 151.259 477.947C151.192 477.782 151.193 477.598 151.261 477.434C151.329 477.27 151.459 477.139 151.623 477.071C159.495 473.916 164.402 464.548 164.456 464.44C164.538 464.281 164.68 464.161 164.851 464.107C165.021 464.052 165.207 464.068 165.366 464.15C165.525 464.232 165.645 464.374 165.699 464.545C165.754 464.716 165.738 464.901 165.656 465.06C165.44 465.464 160.466 474.981 152.176 478.324C152.083 478.368 151.981 478.387 151.879 478.378Z" fill="white"/>
<path d="M427.046 405.856C427.046 405.856 421.156 396.312 420.576 385.946C419.996 375.58 422.274 371.266 425.402 370.026C428.529 368.786 428.772 372.601 430.376 374.852C431.98 377.103 435.256 375.822 436.469 368.799C437.682 361.776 442.103 349.927 451.297 347.622C461.407 345.115 455.988 356.977 453.44 361.601C450.892 366.225 448.924 372.533 450.596 374.245C452.267 375.957 454.869 372.789 457.336 375.728C460.342 379.273 451 392.039 445.635 395.126L427.046 405.856Z" fill="#E27253"/>
<path d="M435.121 401.852C435.032 401.849 434.945 401.828 434.865 401.791C434.784 401.754 434.712 401.701 434.652 401.636C434.592 401.571 434.545 401.495 434.515 401.411C434.484 401.328 434.47 401.24 434.474 401.151C435.387 384.476 440.587 368.318 449.571 354.241C449.622 354.168 449.688 354.105 449.763 354.058C449.839 354.01 449.923 353.979 450.012 353.965C450.1 353.951 450.19 353.955 450.276 353.977C450.363 353.999 450.444 354.038 450.515 354.093C450.656 354.198 450.751 354.354 450.779 354.527C450.806 354.701 450.765 354.879 450.663 355.023C441.839 368.894 436.733 384.803 435.835 401.219C435.83 401.307 435.808 401.394 435.769 401.474C435.73 401.554 435.676 401.625 435.61 401.684C435.543 401.743 435.466 401.788 435.382 401.817C435.298 401.846 435.209 401.858 435.121 401.852Z" fill="white"/>
<path d="M435.889 393.886C435.776 393.884 435.666 393.857 435.566 393.805C431.791 391.715 429.702 385.514 429.621 385.258C429.591 385.174 429.578 385.085 429.583 384.996C429.588 384.907 429.611 384.82 429.65 384.74C429.689 384.66 429.743 384.588 429.81 384.529C429.877 384.47 429.954 384.424 430.039 384.396C430.209 384.34 430.394 384.355 430.553 384.436C430.712 384.517 430.833 384.657 430.888 384.827C430.888 384.827 432.91 390.799 436.28 392.618C436.433 392.709 436.545 392.854 436.592 393.025C436.64 393.196 436.62 393.379 436.536 393.535C436.475 393.651 436.381 393.746 436.266 393.809C436.151 393.871 436.02 393.898 435.889 393.886Z" fill="white"/>
<path d="M436.55 389.801C436.4 389.8 436.256 389.748 436.139 389.656C436.022 389.563 435.939 389.434 435.903 389.289C435.881 389.204 435.876 389.115 435.888 389.028C435.901 388.941 435.93 388.858 435.975 388.783C436.021 388.707 436.08 388.642 436.151 388.59C436.222 388.538 436.303 388.501 436.388 388.48C446.121 386.013 449.49 380.918 449.517 380.864C449.565 380.789 449.627 380.724 449.7 380.672C449.773 380.621 449.856 380.585 449.943 380.565C450.03 380.546 450.12 380.544 450.207 380.559C450.295 380.575 450.379 380.607 450.454 380.655C450.53 380.703 450.595 380.765 450.646 380.838C450.697 380.911 450.733 380.993 450.753 381.08C450.772 381.167 450.774 381.257 450.759 381.345C450.744 381.433 450.711 381.517 450.663 381.592C450.515 381.821 447.01 387.173 436.725 389.788L436.55 389.801Z" fill="white"/>
<path d="M280.384 384.908C280.384 384.908 267.457 381.754 266.783 357.543C266.068 331.419 269.95 300.927 254.651 298.461C239.351 295.994 230.858 314.637 231.047 336.407C231.222 355.468 238.906 396.851 280.33 404.966L280.384 384.908Z" fill="#E27253"/>
<path opacity="0.2" d="M280.384 384.908C280.384 384.908 267.457 381.754 266.783 357.543C266.068 331.419 269.95 300.927 254.651 298.461C239.351 295.994 230.858 314.637 231.047 336.407C231.222 355.468 238.906 396.851 280.33 404.966L280.384 384.908Z" fill="black"/>
<path d="M280.384 402.486H280.263C270.948 400.787 263.359 395.651 257.711 387.24C240.968 362.261 246.239 315.621 247.978 307.479C248.017 307.305 248.121 307.154 248.27 307.056C248.418 306.958 248.598 306.921 248.773 306.953C248.948 306.995 249.1 307.102 249.197 307.253C249.295 307.403 249.332 307.585 249.299 307.762C247.587 315.85 242.343 361.897 258.829 386.485C261.229 390.298 264.395 393.571 268.127 396.095C271.858 398.62 276.073 400.342 280.505 401.151C280.593 401.167 280.677 401.201 280.752 401.25C280.827 401.299 280.891 401.362 280.941 401.436C280.992 401.51 281.027 401.593 281.044 401.681C281.062 401.769 281.062 401.859 281.044 401.947C281.016 402.1 280.934 402.238 280.813 402.337C280.692 402.436 280.54 402.488 280.384 402.486Z" fill="white"/>
<path d="M280.384 464.615C267.025 466.421 245.336 466.395 232.813 456.527C220.29 446.66 222.905 438.167 227.718 434.622C232.53 431.077 236.709 427.033 228.432 419.161C220.155 411.288 206.864 398.644 202.55 379.678C198.237 360.711 200.367 348.849 208.832 344.899C217.041 341.071 219.212 347.164 224.24 359.727C229.268 372.291 240.577 361.52 250.256 365.443C259.935 369.365 259.544 377.13 260.15 383.803C260.757 390.475 263.952 392.322 269.438 392.322C274.925 392.322 280.384 395.476 280.384 401.758V464.615Z" fill="#E27253"/>
<path d="M280.384 442.589C280.326 442.602 280.266 442.602 280.209 442.589C279.629 442.427 265.812 438.41 245.686 419.929C224.253 400.248 214.143 370.727 214.035 370.43C213.984 370.26 214 370.077 214.08 369.919C214.161 369.761 214.299 369.64 214.467 369.581C214.635 369.525 214.818 369.538 214.977 369.616C215.136 369.694 215.258 369.832 215.316 369.999C215.41 370.296 225.426 399.493 246.603 418.931C266.446 437.17 280.424 441.254 280.573 441.295C280.658 441.319 280.737 441.361 280.806 441.416C280.875 441.472 280.932 441.54 280.975 441.618C281.017 441.695 281.044 441.78 281.054 441.868C281.064 441.956 281.056 442.045 281.031 442.13C280.987 442.267 280.901 442.385 280.784 442.468C280.667 442.55 280.527 442.593 280.384 442.589Z" fill="white"/>
<path d="M251.308 424.62C251.172 424.622 251.039 424.582 250.928 424.504C250.817 424.427 250.733 424.316 250.687 424.189C246.36 413.081 245.376 389.316 245.295 388.305C245.292 388.127 245.357 387.955 245.478 387.824C245.598 387.693 245.765 387.614 245.942 387.604C246.119 387.606 246.287 387.674 246.417 387.793C246.546 387.913 246.627 388.076 246.643 388.251C246.643 388.494 247.654 412.798 251.901 423.703C251.933 423.786 251.949 423.875 251.947 423.964C251.945 424.054 251.925 424.142 251.888 424.223C251.852 424.305 251.8 424.378 251.735 424.439C251.67 424.5 251.593 424.548 251.51 424.58C251.445 424.603 251.377 424.617 251.308 424.62Z" fill="white"/>
<path d="M251.2 440.594C249.957 440.604 248.715 440.541 247.479 440.405C247.391 440.394 247.305 440.366 247.227 440.323C247.15 440.279 247.081 440.221 247.026 440.15C246.971 440.08 246.93 440 246.906 439.914C246.882 439.828 246.875 439.739 246.886 439.65C246.897 439.562 246.925 439.476 246.968 439.398C247.012 439.321 247.071 439.252 247.141 439.197C247.211 439.142 247.291 439.101 247.377 439.077C247.463 439.053 247.552 439.046 247.641 439.057C247.762 439.057 260.312 440.486 266.068 434.622C266.128 434.551 266.202 434.493 266.285 434.452C266.369 434.411 266.46 434.388 266.552 434.384C266.645 434.38 266.738 434.395 266.824 434.428C266.911 434.461 266.99 434.512 267.056 434.577C267.122 434.642 267.174 434.72 267.209 434.807C267.243 434.893 267.26 434.985 267.257 435.078C267.254 435.171 267.232 435.262 267.192 435.346C267.152 435.43 267.095 435.505 267.025 435.566C262.86 439.866 255.594 440.594 251.2 440.594Z" fill="white"/>
<path d="M241.494 185.337L240.038 176.938L232.543 181.872C231.859 180.524 230.888 179.342 229.699 178.408L233.285 168.702L226.545 167.206L221.611 176.642C219.826 176.943 218.096 177.506 216.475 178.313L214.332 171.196L206.325 177.491L206.851 185.849C205.22 187.675 203.741 189.632 202.429 191.699L195.824 191.362L191.187 201.755L196.862 204.182C196.269 206.331 195.895 208.535 195.743 210.76L188.531 217.392L189.974 225.803L197.482 220.87C198.163 222.217 199.134 223.395 200.326 224.321L196.808 234.04L203.548 235.523L210.612 228.648C212.243 228.392 211.838 225.318 213.618 224.442L215.761 231.532L223.755 225.251L223.552 221.962C225.17 220.155 231.29 216.179 232.611 214.103L234.269 211.407L238.906 201.014L236.749 197.105L234.35 192.009L241.494 185.337ZM217.028 212.984C210.881 217.81 208.94 218.875 207.902 212.418C206.864 205.961 210.382 196.147 216.529 191.308C222.676 186.469 225.022 186.132 226.127 192.575C227.232 199.019 223.188 208.212 217.028 212.984Z" fill="#E0E0E0"/>
<path d="M226.599 167.206L235.347 172.247L230.414 181.656L221.665 176.615L226.599 167.206Z" fill="#F5F5F5"/>
<path d="M248.787 181.98L241.292 186.914L232.543 181.872L240.038 176.938L248.787 181.98Z" fill="#F5F5F5"/>
<path d="M247.587 206.015L241.912 203.602L233.164 198.56L238.839 200.973L247.587 206.015Z" fill="#E0E0E0"/>
<path d="M196.795 234.04L205.543 239.068L209.129 229.362L200.38 224.321L196.795 234.04Z" fill="#E0E0E0"/>
<path d="M224.429 236.574L215.693 231.532L213.55 224.442L222.299 229.484L224.429 236.574Z" fill="#E0E0E0"/>
<path d="M250.229 190.378L248.787 181.98L241.292 186.914C240.602 185.565 239.627 184.383 238.434 183.449L242.02 173.744L235.347 172.247L230.4 181.683C228.615 181.985 226.885 182.548 225.264 183.355L223.134 176.264L215.127 182.56L215.653 190.917C214.021 192.757 212.542 194.727 211.232 196.808L204.613 196.471L199.976 206.864L205.651 209.29C205.064 211.446 204.689 213.654 204.532 215.882L197.334 222.42L198.776 230.832L206.271 225.898C206.961 227.242 207.936 228.42 209.129 229.349L205.543 239.054L212.283 240.551L217.217 231.115C219.009 230.817 220.745 230.249 222.366 229.43L224.496 236.52L232.503 230.238L231.977 221.881C233.608 220.054 235.087 218.098 236.399 216.03L243.017 216.354L247.655 205.961L241.899 203.548C242.495 201.394 242.875 199.186 243.031 196.956L250.229 190.378ZM225.79 218.079C219.657 222.905 213.779 221.598 212.66 215.154C211.542 208.711 215.626 199.558 221.773 194.732C227.92 189.906 233.784 191.227 234.902 197.671C236.021 204.114 231.937 213.254 225.79 218.079Z" fill="#EBEBEB"/>
<path d="M223.134 176.238L214.386 171.196L206.379 177.491L215.127 182.533L223.134 176.238Z" fill="#F5F5F5"/>
<path d="M206.379 177.491L206.905 185.849L215.653 190.89L215.127 182.533L206.379 177.491Z" fill="#E0E0E0"/>
<path d="M211.232 196.741L202.483 191.699L195.878 191.376L204.613 196.417L211.232 196.741Z" fill="#F5F5F5"/>
<path d="M195.878 191.376L191.241 201.755L199.976 206.797L204.613 196.417L195.878 191.376Z" fill="#E0E0E0"/>
<path d="M204.532 215.801L195.797 210.76L188.585 217.392L197.32 222.433L204.532 215.801Z" fill="#F5F5F5"/>
<path d="M198.776 230.845L190.028 225.804L188.585 217.392L197.32 222.434L198.776 230.845Z" fill="#E0E0E0"/>
<path d="M235.347 172.247L226.599 167.206L233.285 168.702L242.02 173.744L235.347 172.247Z" fill="#F5F5F5"/>
<path d="M202.321 147.215V134.665L192.333 139.168C191.804 137.038 190.89 135.024 189.637 133.223L195.932 120.538L188.248 116.103L180.403 127.898C178.217 127.707 176.014 127.922 173.905 128.532L172.8 117.627L161.935 123.908L160.843 136.04C158.479 138.135 156.305 140.436 154.346 142.915L146.501 140.219L138.817 153.537L145.099 158.929C143.938 161.864 143.036 164.896 142.403 167.988L132.414 175.011V187.574L142.403 183.072C142.932 185.201 143.845 187.216 145.099 189.017L138.844 201.715L146.528 206.15L154.373 194.355C156.559 194.545 158.762 194.33 160.87 193.721L161.962 204.626L172.827 198.345L173.932 186.213C177.324 184.975 180.328 182.864 182.641 180.093L188.275 182.074L195.959 168.77L191.241 164.726C192.265 161.353 192.645 157.818 192.36 154.306L202.321 147.215ZM167.368 178.57C159.037 183.382 153.888 179.918 153.888 170.333C153.888 160.749 160.776 148.9 169.12 144.088C177.464 139.275 182.506 142.74 182.506 152.405C182.506 162.07 175.712 173.744 167.368 178.57Z" fill="#E0E0E0"/>
<path d="M196.983 121.131L188.248 116.103L180.403 127.898L189.138 132.94L196.983 121.131Z" fill="#F5F5F5"/>
<path d="M211.07 139.707L202.321 134.665L192.333 139.168L201.081 144.209L211.07 139.707Z" fill="#F5F5F5"/>
<path d="M170.67 209.668L161.935 204.626L160.843 193.721L169.578 198.763L170.67 209.668Z" fill="#E0E0E0"/>
<path d="M138.804 201.715L147.552 206.756L153.847 194.072L145.099 189.03L138.804 201.715Z" fill="#E0E0E0"/>
<path d="M211.07 152.324V139.774L201.081 144.236C200.558 142.105 199.644 140.089 198.385 138.291L204.68 125.607L196.997 121.158L189.151 132.967C186.965 132.769 184.761 132.984 182.654 133.6L181.549 122.668L170.684 128.95L169.578 141.082C167.217 143.18 165.043 145.481 163.081 147.957L155.236 145.261L147.552 158.579L153.847 163.971C152.68 166.904 151.778 169.935 151.151 173.029L141.163 180.052V192.616L151.151 188.113C151.674 190.245 152.589 192.26 153.847 194.058L147.552 206.743L155.236 211.178L163.081 199.383C165.267 199.574 167.47 199.359 169.578 198.749L170.684 209.654L181.549 203.373L182.641 191.241C185.005 189.146 187.179 186.845 189.138 184.366L196.983 187.062L204.667 173.757L198.372 168.365C199.538 165.432 200.44 162.4 201.068 159.307L211.07 152.324ZM176.116 183.679C167.772 188.491 161.005 184.582 161.005 174.957C161.005 165.332 167.745 153.618 176.116 148.792C184.487 143.966 191.214 147.889 191.214 157.514C191.214 167.139 184.447 178.785 176.116 183.611V183.679Z" fill="#EBEBEB"/>
<path d="M154.346 142.942L163.081 147.983L155.236 145.247L146.501 140.192L154.346 142.942Z" fill="#F0F0F0"/>
<path d="M146.5 140.206L138.814 153.529L147.56 158.574L155.245 145.251L146.5 140.206Z" fill="#F5F5F5"/>
<path d="M138.804 153.51L147.552 158.552L153.847 163.971L145.099 158.943L138.804 153.51Z" fill="#E0E0E0"/>
<path d="M142.403 168.001L151.151 173.043L141.163 180.066L132.414 175.024L142.403 168.001Z" fill="#F5F5F5"/>
<path d="M132.414 175.024L141.163 180.066V192.629L132.414 187.588V175.024Z" fill="#E0E0E0"/>
<path d="M181.549 122.668L172.8 117.627L161.935 123.908L170.67 128.95L181.549 122.668Z" fill="#F5F5F5"/>
<path d="M293.702 482.651L420.414 409.482C420.693 409.384 420.935 409.201 421.106 408.96C421.277 408.718 421.369 408.43 421.369 408.134C421.369 407.838 421.277 407.549 421.106 407.308C420.935 407.067 420.693 406.884 420.414 406.786L408.7 400.046C407.975 399.681 407.174 399.491 406.361 399.491C405.549 399.491 404.748 399.681 404.023 400.046L277.27 473.148C276.991 473.246 276.749 473.429 276.578 473.67C276.407 473.911 276.315 474.2 276.315 474.496C276.315 474.792 276.407 475.081 276.578 475.322C276.749 475.563 276.991 475.746 277.27 475.844L289.025 482.584C289.745 482.96 290.543 483.161 291.355 483.173C292.168 483.185 292.971 483.006 293.702 482.651Z" fill="#E0E0E0"/>
<path d="M416.936 126.982L302.68 192.953C300.981 194.061 299.568 195.554 298.554 197.31C297.54 199.067 296.954 201.038 296.843 203.063V474.105C296.843 477.826 299.458 479.335 302.68 477.475L416.936 411.504C418.637 410.398 420.052 408.906 421.067 407.149C422.081 405.392 422.666 403.42 422.773 401.394V130.352C422.773 126.631 420.172 125.121 416.936 126.982Z" fill="#455A64"/>
<path d="M302.68 192.953L416.936 126.982C419.821 125.31 422.207 126.348 422.692 129.246C422.423 127.424 421.771 125.68 420.779 124.128C419.786 122.576 418.477 121.251 416.936 120.242L412.191 117.546C410.383 116.628 408.383 116.15 406.355 116.15C404.326 116.15 402.327 116.628 400.518 117.546L286.248 183.463C284.527 184.542 283.108 186.04 282.123 187.817L298.555 197.253C299.539 195.49 300.96 194.009 302.68 192.953Z" fill="#37474F"/>
<path d="M280.384 464.615C280.495 466.64 281.081 468.611 282.095 470.367C283.109 472.124 284.522 473.617 286.221 474.725L290.979 477.421C292.626 478.245 294.429 478.712 296.268 478.791C298.108 478.87 299.944 478.559 301.655 477.88C298.959 478.931 296.816 477.381 296.816 474.051V203.063C296.884 201.029 297.473 199.047 298.528 197.307L282.096 187.871C281.056 189.598 280.467 191.559 280.384 193.573V464.615Z" fill="#263238"/>
<path d="M305.821 229.066L413.836 166.721C415.777 165.615 417.341 166.518 417.341 168.743V369.352C417.276 370.568 416.925 371.751 416.316 372.805C415.707 373.859 414.857 374.755 413.836 375.418L305.861 437.763C303.92 438.882 302.356 437.979 302.356 435.741V235.132C302.418 233.92 302.763 232.739 303.365 231.685C303.967 230.632 304.808 229.734 305.821 229.066Z" fill="white"/>
<path d="M359.808 170.239C359.212 170.63 358.716 171.156 358.36 171.774C358.004 172.392 357.798 173.085 357.759 173.798C357.759 175.146 358.676 175.644 359.808 174.984C360.407 174.595 360.904 174.07 361.261 173.451C361.617 172.832 361.821 172.138 361.857 171.425C361.857 170.118 360.941 169.592 359.808 170.239Z" fill="#37474F"/>
<path d="M359.808 416.181C357.452 417.723 355.491 419.798 354.086 422.238C352.681 424.679 351.871 427.416 351.72 430.228C351.72 435.39 355.346 437.493 359.808 434.905C362.164 433.363 364.124 431.288 365.529 428.847C366.934 426.407 367.745 423.671 367.896 420.859C367.923 415.696 364.284 413.593 359.808 416.181Z" fill="#37474F"/>
<path d="M340.41 191.106C339.226 191.892 338.242 192.946 337.54 194.183C336.838 195.419 336.436 196.803 336.366 198.223C336.366 200.838 338.2 201.903 340.41 200.596C341.608 199.817 342.604 198.766 343.318 197.529C344.033 196.293 344.445 194.905 344.522 193.478C344.522 190.863 342.689 189.798 340.41 191.106Z" fill="#37474F"/>
<path d="M350.48 190.216C350.48 191.969 351.828 192.629 353.405 191.699L380.365 176.103C381.2 175.581 381.9 174.87 382.409 174.027C382.917 173.183 383.219 172.232 383.29 171.25C383.29 169.511 381.942 168.85 380.365 169.781L353.405 185.377C352.572 185.897 351.873 186.606 351.364 187.447C350.856 188.288 350.553 189.237 350.48 190.216Z" fill="#37474F"/>
<path d="M289.496 237.747C290.453 238.37 291.249 239.21 291.821 240.198C292.392 241.186 292.723 242.295 292.786 243.435C292.786 245.538 291.316 246.387 289.496 245.336C288.543 244.711 287.75 243.87 287.181 242.882C286.612 241.894 286.283 240.786 286.221 239.647C286.221 237.558 287.69 236.709 289.496 237.747Z" fill="#37474F"/>
<path d="M289.496 263.062C290.453 263.685 291.249 264.525 291.821 265.513C292.392 266.502 292.723 267.611 292.786 268.751C292.786 270.84 291.316 271.689 289.496 270.651C288.543 270.026 287.75 269.185 287.181 268.197C286.612 267.209 286.283 266.101 286.221 264.963C286.221 262.86 287.69 262.011 289.496 263.062Z" fill="#37474F"/>
<path d="M288.472 238.259C289.429 238.882 290.225 239.722 290.796 240.71C291.368 241.698 291.698 242.808 291.761 243.947C291.761 246.037 290.292 246.886 288.472 245.848C287.515 245.225 286.719 244.385 286.148 243.397C285.576 242.409 285.246 241.3 285.183 240.16C285.196 238.057 286.666 237.248 288.472 238.259Z" fill="#455A64"/>
<path d="M288.472 263.561C289.43 264.185 290.228 265.027 290.799 266.018C291.371 267.009 291.7 268.121 291.761 269.263C291.761 271.352 290.292 272.202 288.472 271.15C287.513 270.53 286.715 269.69 286.143 268.701C285.572 267.713 285.242 266.602 285.183 265.462C285.196 263.372 286.666 262.523 288.472 263.561Z" fill="#455A64"/>
<path d="M439.205 175.092C439.205 172.854 437.642 171.951 435.701 173.07L422.773 180.524L327.726 235.415C326.705 236.078 325.855 236.973 325.246 238.027C324.637 239.082 324.286 240.265 324.221 241.481V442.036C324.221 444.274 325.785 445.177 327.726 444.058L422.814 389.154L435.701 381.713C436.722 381.05 437.571 380.155 438.18 379.1C438.789 378.046 439.141 376.863 439.205 375.647V175.092Z" fill="white"/>
<path d="M440.553 175.092C440.638 174.416 440.522 173.73 440.219 173.119C439.916 172.509 439.44 172.002 438.85 171.661C438.26 171.32 437.583 171.161 436.903 171.203C436.223 171.244 435.57 171.486 435.027 171.897L422.692 179.028L327.052 234.296C325.82 235.073 324.797 236.138 324.069 237.399C323.341 238.66 322.93 240.08 322.873 241.535V442.036C322.819 442.709 322.948 443.384 323.247 443.99C323.546 444.595 324.004 445.108 324.571 445.474C325.054 445.754 325.604 445.899 326.162 445.891C326.952 445.867 327.723 445.639 328.4 445.231L424.108 389.963L436.415 382.859C437.639 382.074 438.658 381.007 439.385 379.748C440.112 378.488 440.526 377.073 440.594 375.62L440.553 175.092ZM422.719 387.658L421.614 388.305L327.106 442.872C326.947 442.994 326.763 443.079 326.567 443.121C326.371 443.163 326.168 443.161 325.973 443.115C325.798 443.007 325.623 442.629 325.623 442.009V241.481C325.693 240.502 325.984 239.552 326.474 238.702C326.964 237.852 327.641 237.124 328.454 236.574L422.868 181.98L436.348 174.175C436.506 174.053 436.691 173.968 436.886 173.926C437.082 173.884 437.285 173.886 437.48 173.932C437.655 174.04 437.83 174.418 437.83 175.038V375.647C437.761 376.626 437.47 377.576 436.979 378.426C436.489 379.276 435.812 380.003 435 380.554L422.692 387.658H422.719Z" fill="#E27253"/>
<path d="M381.713 221.692C393.845 214.709 403.618 220.344 403.618 234.35C403.618 248.355 393.805 265.354 381.713 272.282C369.622 279.211 359.808 273.63 359.808 259.638C359.808 245.646 369.622 228.688 381.713 221.692Z" fill="#E27253"/>
<path d="M381.713 232.692C385.636 230.427 388.817 232.26 388.817 236.736C388.684 239.201 387.971 241.6 386.737 243.739C385.502 245.877 383.781 247.694 381.713 249.043C377.79 251.308 374.609 249.474 374.609 244.999C374.742 242.534 375.455 240.134 376.689 237.996C377.924 235.857 379.645 234.04 381.713 232.692Z" fill="#E27253"/>
<path d="M395.557 256.848C395.557 249.407 390.34 246.387 383.883 250.108L379.839 252.44C373.396 256.16 368.166 265.219 368.166 272.66V274.668C371.9 275.895 376.591 275.235 381.646 272.282C387.246 268.828 391.981 264.139 395.49 258.573L395.557 256.848Z" fill="#E27253"/>
<path opacity="0.7" d="M381.713 232.692C385.636 230.427 388.817 232.26 388.817 236.736C388.684 239.201 387.971 241.6 386.737 243.739C385.502 245.877 383.781 247.694 381.713 249.043C377.79 251.308 374.609 249.474 374.609 244.999C374.742 242.534 375.455 240.134 376.689 237.996C377.924 235.857 379.645 234.04 381.713 232.692Z" fill="white"/>
<path opacity="0.7" d="M395.557 256.848C395.557 249.407 390.34 246.387 383.883 250.108L379.839 252.44C373.396 256.16 368.166 265.219 368.166 272.66V274.668C371.9 275.895 376.591 275.235 381.646 272.282C387.246 268.828 391.981 264.139 395.49 258.573L395.557 256.848Z" fill="white"/>
<path d="M339.332 303.084L367.519 286.814C368.867 286.073 369.851 286.666 369.851 288.162V289.092C369.808 289.902 369.575 290.691 369.169 291.394C368.764 292.096 368.199 292.693 367.519 293.136L339.332 309.406C338.051 310.148 337 309.541 337 308.058V307.128C337.044 306.318 337.278 305.53 337.683 304.828C338.088 304.125 338.653 303.528 339.332 303.084Z" fill="#E27253"/>
<path opacity="0.1" d="M339.332 303.084L367.519 286.814C368.867 286.073 369.851 286.666 369.851 288.162V289.092C369.808 289.902 369.575 290.691 369.169 291.394C368.764 292.096 368.199 292.693 367.519 293.136L339.332 309.406C338.051 310.148 337 309.541 337 308.058V307.128C337.044 306.318 337.278 305.53 337.683 304.828C338.088 304.125 338.653 303.528 339.332 303.084Z" fill="black"/>
<path d="M338.173 322.725L423.447 273.496C424.081 273.118 424.607 273.415 424.607 274.17V284.118C424.583 284.522 424.466 284.914 424.265 285.265C424.063 285.616 423.784 285.916 423.447 286.14L338.173 335.369C337.526 335.746 337 335.436 337 334.695V324.747C337.023 324.341 337.141 323.947 337.345 323.596C337.549 323.244 337.832 322.946 338.173 322.725Z" fill="#E27253"/>
<path opacity="0.2" d="M338.173 322.725L423.447 273.496C424.081 273.118 424.607 273.415 424.607 274.17V284.118C424.583 284.522 424.466 284.914 424.265 285.265C424.063 285.616 423.784 285.916 423.447 286.14L338.173 335.369C337.526 335.746 337 335.436 337 334.695V324.747C337.023 324.341 337.141 323.947 337.345 323.596C337.549 323.244 337.832 322.946 338.173 322.725Z" fill="white"/>
<path d="M339.332 347.339L367.519 331.069C368.867 330.327 369.851 330.934 369.851 332.417V333.347C369.809 334.157 369.576 334.946 369.171 335.649C368.765 336.352 368.199 336.949 367.519 337.391L339.332 353.661C338.051 354.416 337 353.81 337 352.313V351.383C337.046 350.574 337.281 349.786 337.686 349.084C338.091 348.382 338.654 347.784 339.332 347.339Z" fill="#E27253"/>
<path opacity="0.1" d="M339.332 347.339L367.519 331.069C368.867 330.327 369.851 330.934 369.851 332.417V333.347C369.809 334.157 369.576 334.946 369.171 335.649C368.765 336.352 368.199 336.949 367.519 337.391L339.332 353.661C338.051 354.416 337 353.81 337 352.313V351.383C337.046 350.574 337.281 349.786 337.686 349.084C338.091 348.382 338.654 347.784 339.332 347.339Z" fill="black"/>
<path d="M338.173 366.979L423.447 317.751C424.081 317.373 424.607 317.683 424.607 318.425V328.373C424.583 328.777 424.466 329.169 424.265 329.52C424.063 329.871 423.784 330.17 423.447 330.395L338.173 379.624C337.526 380.001 337 379.705 337 378.95V369.001C337.023 368.596 337.141 368.202 337.345 367.851C337.549 367.499 337.832 367.201 338.173 366.979Z" fill="#E27253"/>
<path opacity="0.2" d="M338.173 366.979L423.447 317.751C424.081 317.373 424.607 317.683 424.607 318.425V328.373C424.583 328.777 424.466 329.169 424.265 329.52C424.063 329.871 423.784 330.17 423.447 330.395L338.173 379.624C337.526 380.001 337 379.705 337 378.95V369.001C337.023 368.596 337.141 368.202 337.345 367.851C337.549 367.499 337.832 367.201 338.173 366.979Z" fill="white"/>
<path d="M372.183 372.628L405.883 353.203C407.231 352.448 408.228 353.055 408.228 354.551V364.957C408.184 365.769 407.949 366.558 407.541 367.261C407.133 367.964 406.565 368.56 405.883 369.001L372.183 388.44C370.835 389.181 369.851 388.574 369.851 387.092V376.672C369.898 375.862 370.133 375.075 370.538 374.373C370.943 373.671 371.506 373.073 372.183 372.628Z" fill="#E27253"/>
<path opacity="0.1" d="M372.183 372.628L405.883 353.203C407.231 352.448 408.228 353.055 408.228 354.551V364.957C408.184 365.769 407.949 366.558 407.541 367.261C407.133 367.964 406.565 368.56 405.883 369.001L372.183 388.44C370.835 389.181 369.851 388.574 369.851 387.092V376.672C369.898 375.862 370.133 375.075 370.538 374.373C370.943 373.671 371.506 373.073 372.183 372.628Z" fill="black"/>
<path d="M451.984 328.71C451.984 328.71 435.431 305.875 434.46 303.098C433.692 301.049 434.46 298.002 434.703 296.587C434.946 295.172 435.161 292.017 435.404 291.195C435.808 289.658 433.827 289.968 432.708 291.37C431.589 292.772 431.212 295.576 430.632 296.034C430.052 296.493 425.644 290.063 423.339 287.097C421.034 284.131 419.592 282.325 418.177 283.43C417.166 284.226 417.92 285.951 419.592 288.485C420.568 289.85 421.468 291.268 422.288 292.732C422.544 293.284 421.169 293.325 420.428 294.471C419.848 295.36 420.428 296.803 419.619 297.49C419.121 297.869 418.78 298.418 418.661 299.032C418.541 299.646 418.652 300.282 418.972 300.82C420.472 303.176 422.408 305.226 424.674 306.859C427.154 308.571 428.152 309.177 429.621 311.509C431.09 313.841 444.274 337.661 445.164 339.089C446.053 340.518 447.765 343.43 450.367 343.511C452.968 343.592 474.267 325.259 475.359 324.342C478.864 321.417 479.982 320.999 480.576 323.628C480.78 324.562 480.933 325.507 481.034 326.459C481.452 329.802 483.73 341.745 483.73 341.745C483.73 341.745 494.514 346.962 503.37 344.441C512.227 341.92 515.219 338.159 515.219 338.159L510.784 330.934C511.984 327.955 517.524 315.877 519.317 307.425L491.548 302.936C490.982 302.815 490.065 302.586 488.852 302.276C487.329 301.871 483.46 300.537 480.535 303.098C470.991 311.415 452.011 328.71 452.011 328.71" fill="#FFA8A7"/>
<path d="M507.037 468.821L502.063 475.736C504.323 476.792 506.793 477.322 509.288 477.286C513.75 477.448 514.976 475.938 515.138 475.642C515.893 474.024 514.72 471.112 514.397 468.605L507.037 468.821Z" fill="#37474F"/>
<path d="M502.346 472.42C502.346 472.42 496.307 472.029 492.141 471.517C487.976 471.005 484.673 473.027 485.644 474.739C486.615 476.451 488.92 477.879 492.505 479.079C495.565 480.117 499.245 480.859 502.427 481.775C505.608 482.692 507.819 483.892 509.665 483.244C511.728 482.53 512.617 481.708 512.442 480.198C511.992 478.05 511.434 475.927 510.771 473.835L502.346 472.42Z" fill="#37474F"/>
<path d="M515.138 461.879C515.138 461.879 514.383 468.16 514.329 469.508C514.275 470.856 508.196 471.288 507.037 468.821L506.848 461.137L515.138 461.879Z" fill="#F28F8F"/>
<path d="M509.018 465.734L511.189 475.278C511.189 475.278 511.391 476.437 506.43 477.179C501.469 477.92 493.678 474.577 492.344 473.903C491.009 473.229 490.861 471.867 495.74 472.137C500.62 472.407 502.346 472.42 502.346 472.42L500.755 468.201L509.018 465.734Z" fill="#FFA8A7"/>
<path d="M519.236 307.344L522.674 306.387C522.674 306.387 529.858 329.128 530.654 331.325C531.449 333.522 532.352 335.841 530.802 338.55C528.955 341.772 519.236 354.726 519.236 354.726L513.062 348.687L520.072 335.854L513.871 323.318L519.236 307.344Z" fill="#F28F8F"/>
<path d="M483.932 277.809C483.126 276.296 482.717 274.604 482.743 272.89C482.769 271.176 483.229 269.497 484.08 268.009C487.504 261.66 495.134 258.573 504.219 259.746C508.425 260.299 513.386 263.79 516.095 269.007C519.088 274.79 519.371 286.436 520.139 290.844L483.932 277.809Z" fill="#37474F"/>
<path d="M483.689 280.303C483.689 280.303 481.533 284.414 481.91 284.792C482.469 285.118 483.08 285.346 483.716 285.466L483.689 280.303Z" fill="#FFA8A7"/>
<path d="M490.241 267.308C487.895 268.832 483.851 271.635 483.676 280.869C483.487 290.305 484.835 293.419 486.237 294.511C487.181 295.252 492.721 294.875 495.093 294.322C497.466 293.77 504.3 290.386 506.767 285.25C509.665 279.211 509.072 270.422 504.772 267.726C502.583 266.432 500.102 265.715 497.56 265.642C495.019 265.569 492.5 266.142 490.241 267.308Z" fill="#FFA8A7"/>
<path d="M515.138 338.105C519.29 344.576 523.226 350.237 524.089 357.543C525.868 372.897 520.045 390.448 518.791 401.812C521.149 405.044 522.508 408.896 522.7 412.892C522.7 417.597 515.138 461.879 515.138 461.879C515.138 461.879 509.638 463.55 506.848 461.137L501.658 379.678L504.354 369.756L515.138 338.105Z" fill="#E27253"/>
<path opacity="0.2" d="M515.138 338.105C519.29 344.576 523.226 350.237 524.089 357.543C525.868 372.897 520.045 390.448 518.791 401.812C521.149 405.044 522.508 408.896 522.7 412.892C522.7 417.597 515.138 461.879 515.138 461.879C515.138 461.879 509.638 463.55 506.848 461.137L501.658 379.678L504.354 369.756L515.138 338.105Z" fill="black"/>
<path d="M501.658 379.678L504.354 369.756C509.516 368.398 514.495 366.42 519.182 363.866C519.182 363.866 516.378 368.975 508.317 371.778L504.152 384.517L503.802 413.701L501.658 379.678Z" fill="#E27253"/>
<path opacity="0.3" d="M501.658 379.678L504.354 369.756C509.516 368.398 514.495 366.42 519.182 363.866C519.182 363.866 516.378 368.975 508.317 371.778L504.152 384.517L503.802 413.701L501.658 379.678Z" fill="black"/>
<path d="M515.138 338.105C517.362 341.745 522.674 347.946 521.541 353.917C520.193 361.143 516.284 366.225 504.395 369.756L493.233 410.196C493.233 410.196 499.043 415.588 500.822 420.805C502.602 426.022 509.018 465.761 509.018 465.761C509.018 465.761 507.023 469.01 500.755 468.228C500.755 468.228 478.904 418.352 477.367 415.103C475.502 411.813 474.849 407.974 475.521 404.252C476.208 399.021 483.609 341.772 483.609 341.772L515.138 338.105Z" fill="#E27253"/>
<path opacity="0.2" d="M515.138 338.105C517.362 341.745 522.674 347.946 521.541 353.917C520.193 361.143 516.284 366.225 504.395 369.756L493.233 410.196C493.233 410.196 499.043 415.588 500.822 420.805C502.602 426.022 509.018 465.761 509.018 465.761C509.018 465.761 507.023 469.01 500.755 468.228C500.755 468.228 478.904 418.352 477.367 415.103C475.502 411.813 474.849 407.974 475.521 404.252C476.208 399.021 483.609 341.772 483.609 341.772L515.138 338.105Z" fill="black"/>
<path d="M519.236 307.344L491.467 302.855C490.901 302.734 489.985 302.505 488.771 302.195C488.771 302.195 487.585 319.611 480.454 323.601C480.629 324.437 480.778 325.367 480.913 326.432C481.33 329.775 483.609 341.718 483.609 341.718C483.609 341.718 494.392 346.935 503.249 344.414C512.105 341.893 515.098 338.132 515.098 338.132L510.663 330.907C511.903 327.901 517.484 315.823 519.236 307.344Z" fill="#E27253"/>
<path opacity="0.7" d="M519.236 307.344L491.467 302.855C490.901 302.734 489.985 302.505 488.771 302.195C488.771 302.195 487.585 319.611 480.454 323.601C480.629 324.437 480.778 325.367 480.913 326.432C481.33 329.775 483.609 341.718 483.609 341.718C483.609 341.718 494.392 346.935 503.249 344.414C512.105 341.893 515.098 338.132 515.098 338.132L510.663 330.907C511.903 327.901 517.484 315.823 519.236 307.344Z" fill="white"/>
<path d="M511.916 328.036C508.229 330.25 504.365 332.157 500.364 333.738C503.995 333.665 507.55 332.683 510.703 330.88L511.916 328.036Z" fill="#E27253"/>
<path d="M489.553 267.767C489.553 267.767 488.205 276.529 491.386 281.678C491.386 281.678 492.573 278.187 495.525 278.847C498.477 279.508 498.639 283.404 496.563 285.587C496.035 286.2 495.345 286.651 494.573 286.89C493.8 287.128 492.976 287.144 492.195 286.935C492.195 286.935 491.723 293.271 491.467 298.582C491.211 303.893 489.809 315.472 495.781 320.15C501.753 324.828 516.742 326.472 523.765 316.659C527.675 311.199 522.485 301.548 520.072 290.723C517.848 280.775 516.594 266.028 506.039 263.655C495.484 261.283 489.553 267.767 489.553 267.767Z" fill="#37474F"/>
<path d="M528.281 148.051L526.057 149.399C526.244 148.607 526.348 147.799 526.367 146.986C526.367 142.47 523.199 140.65 519.29 142.942C518.1 143.66 517.039 144.571 516.149 145.638C516.149 139.572 511.889 137.105 506.632 140.138C503.862 141.945 501.557 144.379 499.903 147.243C498.25 150.108 497.294 153.322 497.115 156.624C497.115 156.934 497.115 157.231 497.115 157.527C495.761 157.357 494.39 157.672 493.247 158.417C491.187 159.759 489.472 161.568 488.243 163.697C487.013 165.826 486.303 168.215 486.17 170.67C486.169 171.241 486.228 171.81 486.345 172.369L485.159 173.056C481.937 174.917 479.322 178.543 479.322 181.144C479.322 183.746 481.937 184.366 485.159 182.492L528.295 157.622C531.516 155.761 534.131 152.135 534.131 149.534C534.131 146.932 531.503 146.177 528.281 148.051Z" fill="#EBEBEB"/>
</svg>
