<svg width="22" height="22" viewBox="0 0 22 22" fill="none" xmlns="http://www.w3.org/2000/svg">
<g clip-path="url(#clip0_934_2007)">
<path fill-rule="evenodd" clip-rule="evenodd" d="M20.7776 21.9913C21.4478 21.9913 21.9912 21.4479 21.9912 20.7776V1.21371C21.9912 0.543243 21.4477 0 20.7776 0H1.21371C0.543243 0 0 0.543326 0 1.21371V20.7776C0 21.4479 0.543243 21.9913 1.21371 21.9913H20.7776V21.9913ZM15.1736 21.9913V13.4751H18.0321L18.4601 10.1562H15.1735V8.03717C15.1735 7.07625 15.4403 6.42145 16.8183 6.42145L18.5757 6.42062V3.45219C18.2718 3.41181 17.2285 3.32142 16.0148 3.32142C13.4809 3.32142 11.7461 4.8681 11.7461 7.70857V10.1562H8.88025V13.4751H11.7461V21.9913H15.1736V21.9913Z" fill="#485A96"/>
</g>
<defs>
<clipPath id="clip0_934_2007">
<rect width="22" height="22" fill="white"/>
</clipPath>
</defs>
</svg>
