<svg width="22" height="22" viewBox="0 0 22 22" fill="none" xmlns="http://www.w3.org/2000/svg">
<path d="M5.57863 21.9222C4.27028 21.8627 3.55954 21.645 3.08681 21.4606C2.46043 21.2167 2.01385 20.9264 1.54373 20.4569C1.07362 19.9875 0.782655 19.5409 0.540078 18.9145C0.355693 18.4418 0.137962 17.731 0.0784617 16.4227C0.0130769 15.0084 0 14.5841 0 11.001C0 7.4179 0.0143846 6.9942 0.0778078 5.57863C0.137308 4.27028 0.356347 3.56085 0.539424 3.08681C0.783309 2.46043 1.07427 2.01385 1.54308 1.54308C2.01254 1.07362 2.45912 0.782001 3.08616 0.539424C3.55889 0.355039 4.26962 0.137308 5.57797 0.0778078C6.9929 0.0130769 7.4179 0 10.9997 0C14.5828 0 15.0065 0.0143846 16.422 0.0778078C17.7304 0.137308 18.4398 0.356347 18.9138 0.539424C19.5402 0.782001 19.9868 1.07362 20.4569 1.54308C20.927 2.01254 21.2167 2.45977 21.4606 3.08616C21.645 3.55889 21.8627 4.26962 21.9222 5.57797C21.9869 6.99355 22 7.41724 22 11.0003C22 14.5821 21.9869 15.0071 21.9222 16.4227C21.8627 17.731 21.6437 18.4418 21.4606 18.9145C21.2167 19.5409 20.9264 19.9875 20.4569 20.4569C19.9875 20.9264 19.5402 21.2167 18.9138 21.4606C18.4411 21.645 17.7304 21.8627 16.422 21.9222C15.0078 21.9869 14.5828 22 10.9997 22C7.4179 22 6.9929 21.9876 5.57863 21.9222Z" fill="url(#paint0_radial_934_859)"/>
<path d="M5.57863 21.9222C4.27028 21.8627 3.55954 21.645 3.08681 21.4606C2.46043 21.2167 2.01385 20.9264 1.54373 20.4569C1.07362 19.9875 0.782655 19.5409 0.540078 18.9145C0.355693 18.4418 0.137962 17.731 0.0784617 16.4227C0.0130769 15.0084 0 14.5841 0 11.001C0 7.4179 0.0143846 6.9942 0.0778078 5.57863C0.137308 4.27028 0.356347 3.56085 0.539424 3.08681C0.783309 2.46043 1.07427 2.01385 1.54308 1.54308C2.01254 1.07362 2.45912 0.782001 3.08616 0.539424C3.55889 0.355039 4.26962 0.137308 5.57797 0.0778078C6.9929 0.0130769 7.4179 0 10.9997 0C14.5828 0 15.0065 0.0143846 16.422 0.0778078C17.7304 0.137308 18.4398 0.356347 18.9138 0.539424C19.5402 0.782001 19.9868 1.07362 20.4569 1.54308C20.927 2.01254 21.2167 2.45977 21.4606 3.08616C21.645 3.55889 21.8627 4.26962 21.9222 5.57797C21.9869 6.99355 22 7.41724 22 11.0003C22 14.5821 21.9869 15.0071 21.9222 16.4227C21.8627 17.731 21.6437 18.4418 21.4606 18.9145C21.2167 19.5409 20.9264 19.9875 20.4569 20.4569C19.9875 20.9264 19.5402 21.2167 18.9138 21.4606C18.4411 21.645 17.7304 21.8627 16.422 21.9222C15.0078 21.9869 14.5828 22 10.9997 22C7.4179 22 6.9929 21.9876 5.57863 21.9222Z" fill="url(#paint1_radial_934_859)"/>
<path d="M8.29877 11.0469C8.29877 9.5423 9.51813 8.32229 11.0227 8.32229C12.5273 8.32229 13.7473 9.5423 13.7473 11.0469C13.7473 12.5514 12.5273 13.7714 11.0227 13.7714C9.51813 13.7714 8.29877 12.5514 8.29877 11.0469ZM6.82592 11.0469C6.82592 13.3648 8.70481 15.2437 11.0227 15.2437C13.3406 15.2437 15.2195 13.3648 15.2195 11.0469C15.2195 8.72898 13.3406 6.85009 11.0227 6.85009C8.70481 6.85009 6.82598 8.72885 6.82598 11.0469H6.82592ZM14.4049 6.68368C14.4048 6.87766 14.4623 7.0673 14.57 7.22863C14.6777 7.38996 14.8308 7.51573 15.01 7.59004C15.1892 7.66434 15.3864 7.68384 15.5766 7.64607C15.7669 7.60831 15.9417 7.51497 16.0789 7.37786C16.2161 7.24075 16.3096 7.06603 16.3475 6.8758C16.3855 6.68556 16.3661 6.48835 16.292 6.30911C16.2178 6.12987 16.0921 5.97664 15.9309 5.86881C15.7697 5.76098 15.5801 5.70338 15.3861 5.7033H15.3857C15.1257 5.70342 14.8763 5.80674 14.6925 5.99056C14.5086 6.17438 14.4051 6.42367 14.4049 6.68368ZM7.72077 17.6996C6.92393 17.6633 6.49082 17.5306 6.203 17.4185C5.82141 17.2699 5.54915 17.093 5.26289 16.8071C4.97664 16.5213 4.79945 16.2493 4.65155 15.8677C4.53935 15.58 4.40662 15.1468 4.37039 14.3499C4.33077 13.4884 4.32286 13.2296 4.32286 11.047C4.32286 8.86439 4.33142 8.60632 4.37039 7.74409C4.40668 6.94725 4.54039 6.51486 4.65155 6.22632C4.8001 5.84473 4.97703 5.57247 5.26289 5.28621C5.54876 4.99996 5.82076 4.82277 6.203 4.67487C6.49069 4.56267 6.92393 4.42994 7.72077 4.39371C8.58228 4.35409 8.84107 4.34618 11.0227 4.34618C13.2043 4.34618 13.4634 4.35461 14.3256 4.39384C15.1225 4.43013 15.5548 4.56384 15.8434 4.675C16.225 4.8229 16.4972 5.00048 16.7835 5.28634C17.0697 5.57221 17.2463 5.84486 17.3948 6.22645C17.507 6.51414 17.6398 6.94738 17.676 7.74422C17.7156 8.60645 17.7235 8.86452 17.7235 11.0471C17.7235 13.2297 17.7156 13.4878 17.676 14.35C17.6397 15.1469 17.5063 15.58 17.3948 15.8678C17.2463 16.2494 17.0693 16.5217 16.7835 16.8073C16.4976 17.0929 16.225 17.2701 15.8434 17.4186C15.5557 17.5308 15.1225 17.6635 14.3256 17.6998C13.4641 17.7394 13.2053 17.7473 11.0227 17.7473C8.84009 17.7473 8.58202 17.7394 7.72077 17.6998V17.6996ZM7.6531 2.92328C6.78302 2.9629 6.18848 3.10086 5.66926 3.3029C5.13186 3.51154 4.67633 3.79145 4.22145 4.24562C3.76656 4.69978 3.48737 5.15538 3.27873 5.69343C3.07669 6.21298 2.93873 6.80719 2.89911 7.67727C2.85883 8.54871 2.84961 8.82732 2.84961 11.0469C2.84961 13.2664 2.85883 13.545 2.89911 14.4165C2.93873 15.2866 3.07669 15.8808 3.27873 16.4003C3.48737 16.9377 3.76663 17.3942 4.22145 17.8481C4.67626 18.3021 5.13121 18.5816 5.66926 18.7908C6.18946 18.9929 6.78302 19.1308 7.6531 19.1705C8.525 19.2101 8.80315 19.22 11.0227 19.22C13.2422 19.22 13.5209 19.2107 14.3923 19.1705C15.2624 19.1308 15.8566 18.9929 16.3761 18.7908C16.9135 18.5816 17.3691 18.3023 17.824 17.8481C18.2788 17.394 18.5574 16.9377 18.7667 16.4003C18.9687 15.8808 19.1073 15.2865 19.1463 14.4165C19.1859 13.5444 19.1951 13.2664 19.1951 11.0469C19.1951 8.82732 19.1859 8.54871 19.1463 7.67727C19.1067 6.80713 18.9687 6.21265 18.7667 5.69343C18.5574 5.15603 18.2781 4.7005 17.824 4.24562C17.3698 3.79073 16.9135 3.51154 16.3768 3.3029C15.8566 3.10086 15.2624 2.96224 14.393 2.92328C13.5214 2.88346 13.2429 2.87378 11.0237 2.87378C8.80446 2.87378 8.52533 2.883 7.65342 2.92328" fill="white"/>
<defs>
<radialGradient id="paint0_radial_934_859" cx="0" cy="0" r="1" gradientUnits="userSpaceOnUse" gradientTransform="translate(1.42382 21.518) scale(27.9318)">
<stop offset="0.09" stop-color="#FA8F21"/>
<stop offset="0.78" stop-color="#D82D7E"/>
</radialGradient>
<radialGradient id="paint1_radial_934_859" cx="0" cy="0" r="1" gradientUnits="userSpaceOnUse" gradientTransform="translate(15.2386 20.8116) scale(24.5803)">
<stop offset="0.64" stop-color="#8C3AAA" stop-opacity="0"/>
<stop offset="1" stop-color="#8C3AAA"/>
</radialGradient>
</defs>
</svg>
