<svg width="22" height="22" viewBox="0 0 22 22" fill="none" xmlns="http://www.w3.org/2000/svg">
<g clip-path="url(#clip0_934_855)">
<path d="M21.9987 16.4389C21.9987 16.5593 21.995 16.8205 21.9878 17.0223C21.9701 17.5161 21.9309 18.1533 21.8717 18.4436C21.7828 18.8798 21.6485 19.2916 21.4734 19.6343C21.2662 20.0398 21.0019 20.4029 20.6879 20.7164C20.3746 21.0292 20.0118 21.2924 19.6069 21.4987C19.2624 21.6743 18.8481 21.8087 18.4093 21.8973C18.1219 21.9553 17.4895 21.9937 16.9989 22.0111C16.7969 22.0183 16.5356 22.022 16.4156 22.022L5.58261 22.0202C5.46215 22.0202 5.20094 22.0165 4.99914 22.0093C4.50537 21.9916 3.86823 21.9525 3.57791 21.8933C3.14164 21.8043 2.72985 21.67 2.38714 21.4949C1.98168 21.2877 1.61853 21.0235 1.3051 20.7095C0.992283 20.3961 0.729057 20.0333 0.522742 19.6285C0.347129 19.2839 0.212766 18.8696 0.124186 18.4309C0.0661777 18.1434 0.0277852 17.5111 0.0103184 17.0204C0.00314258 16.8185 -0.000488281 16.5572 -0.000488281 16.4372L0.00123047 5.60415C0.00123047 5.48369 0.0049043 5.22246 0.0121445 5.02066C0.0298691 4.52688 0.0689922 3.88974 0.128182 3.59944C0.217148 3.16318 0.351426 2.75139 0.526545 2.40865C0.733719 2.00322 0.997998 1.64005 1.31199 1.32661C1.62532 1.01382 1.98815 0.750572 2.39298 0.544236C2.73752 0.368665 3.15189 0.234302 3.59063 0.145722C3.87802 0.0876926 4.51042 0.0493001 5.00103 0.0318547C5.20303 0.0246575 5.46434 0.0210266 5.58431 0.0210266L16.4173 0.0227668C16.5378 0.0227668 16.799 0.0264407 17.0008 0.0336809C17.4946 0.0514055 18.1317 0.0905286 18.422 0.149718C18.8583 0.238685 19.2701 0.372962 19.6128 0.548081C20.0182 0.755255 20.3814 1.01953 20.6948 1.33353C21.0076 1.64686 21.2709 2.00966 21.4772 2.41452C21.6528 2.75906 21.7872 3.17341 21.8757 3.61214C21.9338 3.89956 21.9721 4.53193 21.9896 5.02257C21.9968 5.22457 22.0004 5.48586 22.0004 5.60587L21.9987 16.4389Z" fill="url(#paint0_linear_934_855)"/>
<path d="M16.8288 5.22599C15.3394 3.73525 13.3585 2.91386 11.248 2.91302C6.89951 2.91302 3.36037 6.45081 3.35863 10.7993C3.35807 12.1894 3.72135 13.5462 4.41173 14.7422L3.29248 18.8291L7.47474 17.7324C8.62707 18.3607 9.92443 18.6918 11.2449 18.6924H11.2481C15.5962 18.6924 19.1356 15.1542 19.1374 10.8056C19.1382 8.69827 18.3184 6.71673 16.8288 5.22599ZM11.2481 17.3604H11.2454C10.0688 17.3599 8.91473 17.0439 7.90795 16.4467L7.66848 16.3046L5.18667 16.9555L5.84912 14.5365L5.69317 14.2885C5.03678 13.2448 4.6901 12.0384 4.69062 10.7999C4.69204 7.18556 7.63366 4.24506 11.2506 4.24506C13.0021 4.24572 14.6485 4.9285 15.8865 6.16752C17.1246 7.40655 17.806 9.05356 17.8053 10.8051C17.8039 14.4197 14.8623 17.3604 11.2481 17.3604ZM14.8449 12.4509C14.6477 12.3523 13.6786 11.8755 13.4979 11.8097C13.3172 11.7439 13.1858 11.7111 13.0544 11.9084C12.923 12.1057 12.5452 12.5495 12.4302 12.681C12.3152 12.8126 12.2002 12.829 12.0031 12.7304C11.8059 12.6317 11.1708 12.4236 10.4178 11.7523C9.83185 11.2298 9.4362 10.5844 9.32121 10.3871C9.20623 10.1898 9.30899 10.0832 9.40767 9.98491C9.49633 9.89663 9.60478 9.75475 9.70335 9.63968C9.8019 9.52463 9.83477 9.44239 9.90047 9.31088C9.96619 9.17935 9.93332 9.06426 9.88404 8.96563C9.83477 8.86699 9.44051 7.89701 9.27625 7.50245C9.11625 7.11818 8.9537 7.17018 8.8327 7.16414C8.71784 7.15842 8.5863 7.15722 8.4549 7.15722C8.3235 7.15722 8.10992 7.20653 7.92924 7.40382C7.74856 7.60111 7.23931 8.07787 7.23931 9.04782C7.23931 10.0178 7.94565 10.9549 8.04422 11.0864C8.14279 11.2179 9.43424 13.2084 11.4117 14.062C11.882 14.265 12.2492 14.3863 12.5355 14.4771C13.0077 14.6271 13.4375 14.6059 13.7772 14.5552C14.1559 14.4986 14.9434 14.0785 15.1077 13.6182C15.272 13.1578 15.272 12.7633 15.2227 12.6811C15.1734 12.5989 15.042 12.5495 14.8449 12.4509Z" fill="white"/>
</g>
<defs>
<linearGradient id="paint0_linear_934_855" x1="11" y1="0.0210266" x2="11" y2="22.022" gradientUnits="userSpaceOnUse">
<stop stop-color="#61FD7D"/>
<stop offset="1" stop-color="#2BB826"/>
</linearGradient>
<clipPath id="clip0_934_855">
<rect width="22" height="22" fill="white"/>
</clipPath>
</defs>
</svg>
