<svg width="24" height="24" viewBox="0 0 24 24" fill="none" xmlns="http://www.w3.org/2000/svg">
<path fill-rule="evenodd" clip-rule="evenodd" d="M12 2C6.47715 2 2 6.47715 2 12C2 17.5229 6.47715 22 12 22C17.5229 22 22 17.5229 22 12C22 6.47715 17.5229 2 12 2ZM12 20C7.58172 20 4 16.4183 4 12C4 7.58172 7.58172 4 12 4C16.4183 4 20 7.58172 20 12C20 16.4183 16.4183 20 12 20ZM10.9212 13.39L14.7012 8.38998H14.6912C15.0281 7.94815 15.6594 7.86309 16.1012 8.19998C16.543 8.53687 16.6281 9.16815 16.2912 9.60998L11.7212 15.61C11.5324 15.8552 11.2407 15.9992 10.9312 16C10.6234 16.0016 10.332 15.8615 10.1412 15.62L7.71121 12.51C7.37155 12.0737 7.4499 11.4446 7.88621 11.105C8.32251 10.7653 8.95155 10.8437 9.29121 11.28L10.9212 13.39Z" fill="#C16951"/>
</svg>
