<svg width="24" height="24" viewBox="0 0 24 24" fill="none" xmlns="http://www.w3.org/2000/svg">
<path fill-rule="evenodd" clip-rule="evenodd" d="M17 2C18.5977 2 19.9037 3.24892 19.9949 4.82373L20 5V21C20 21.7607 19.1926 22.229 18.5417 21.8892L18.4453 21.8321L16.127 20.287L14.7071 21.7071C14.3466 22.0676 13.7794 22.0953 13.3871 21.7903L13.2929 21.7071L12 20.415L10.7071 21.7071C10.3466 22.0676 9.77939 22.0953 9.3871 21.7903L9.29289 21.7071L7.872 20.287L5.53609 21.8443L5.43977 21.8984L5.33726 21.9417L5.22929 21.9736L5.11662 21.9933L5 22L4.88338 21.9933L4.77071 21.9736L4.66274 21.9417L4.59486 21.9144L4.49646 21.8642L4.46391 21.8443L4.37455 21.7803L4.29289 21.7071L4.21969 21.6254L4.15569 21.5361L4.10164 21.4398L4.06274 21.3493L4.04448 21.2958L4.02641 21.2293L4.00673 21.1166L4.00012 21.0223L4 5C4 3.40232 5.24892 2.09634 6.82373 2.00509L7 2H17ZM17 4H7C6.48716 4 6.06449 4.38604 6.00673 4.88338L6 5V19.13L7.4453 18.1679C7.80587 17.9276 8.27511 17.9489 8.61069 18.208L8.70711 18.2929L10 19.585L11.2929 18.2929C11.6534 17.9324 12.2206 17.9047 12.6129 18.2097L12.7071 18.2929L14 19.585L15.2929 18.2929C15.5993 17.9865 16.0636 17.9154 16.4435 18.1037L16.5547 18.1679L18 19.131V5C18 4.48716 17.614 4.06449 17.1166 4.00673L17 4ZM15 14C15.5523 14 16 14.4477 16 15C16 15.5128 15.614 15.9355 15.1166 15.9933L15 16H13C12.4477 16 12 15.5523 12 15C12 14.4872 12.386 14.0645 12.8834 14.0067L13 14H15ZM15 10C15.5523 10 16 10.4477 16 11C16 11.5128 15.614 11.9355 15.1166 11.9933L15 12H9C8.44772 12 8 11.5523 8 11C8 10.4872 8.38604 10.0645 8.88338 10.0067L9 10H15ZM15 6C15.5523 6 16 6.44772 16 7C16 7.51284 15.614 7.93551 15.1166 7.99327L15 8H9C8.44772 8 8 7.55228 8 7C8 6.48716 8.38604 6.06449 8.88338 6.00673L9 6H15Z" fill="#C16951"/>
</svg>
