<svg width="16" height="16" viewBox="0 0 16 16" fill="none" xmlns="http://www.w3.org/2000/svg">
<path d="M15.3189 0.681228C15.2345 0.597274 15.128 0.539147 15.0117 0.513682C14.8955 0.488217 14.7743 0.496473 14.6626 0.537478L0.912623 5.53748C0.79404 5.58246 0.691948 5.66245 0.619904 5.76682C0.547861 5.8712 0.509277 5.99503 0.509277 6.12185C0.509277 6.24868 0.547861 6.3725 0.619904 6.47688C0.691948 6.58126 0.79404 6.66125 0.912623 6.70623L6.28137 8.84998L10.2439 4.87498L11.1251 5.75623L7.14387 9.73748L9.29387 15.1062C9.34019 15.2225 9.42035 15.3222 9.52399 15.3924C9.62762 15.4626 9.74995 15.5001 9.87512 15.5C10.0014 15.4974 10.124 15.4566 10.2266 15.3829C10.3293 15.3093 10.4072 15.2063 10.4501 15.0875L15.4501 1.33748C15.4927 1.2269 15.503 1.1065 15.4797 0.990305C15.4565 0.874114 15.4007 0.766922 15.3189 0.681228Z" fill="#C16951"/>
</svg>
