<svg width="24" height="24" viewBox="0 0 24 24" fill="none" xmlns="http://www.w3.org/2000/svg">
<path fill-rule="evenodd" clip-rule="evenodd" d="M4 7C4 4.23858 6.23858 2 9 2C11.7614 2 14 4.23858 14 7C14 9.76142 11.7614 12 9 12C6.23858 12 4 9.76142 4 7ZM12 7C12 5.34315 10.6569 4 9 4C7.34315 4 6 5.34315 6 7C6 8.65685 7.34315 10 9 10C10.6569 10 12 8.65685 12 7ZM11 14C13.6888 14 15.8818 16.1223 15.9954 18.7831L16 19V21C16 21.5523 15.5523 22 15 22C14.4872 22 14.0645 21.614 14.0067 21.1166L14 21V19C14 17.4023 12.7511 16.0963 11.1763 16.0051L11 16H7C5.40232 16 4.09634 17.2489 4.00509 18.8237L4 19V21C4 21.5523 3.55228 22 3 22C2.48716 22 2.06449 21.614 2.00673 21.1166L2 21V19C2 16.3112 4.12231 14.1182 6.78311 14.0046L7 14H11ZM19.9933 7.88338C19.9355 7.38604 19.5128 7 19 7C18.4477 7 18 7.44772 18 8V10H16L15.8834 10.0067C15.386 10.0645 15 10.4872 15 11C15 11.5523 15.4477 12 16 12H18V14L18.0067 14.1166C18.0645 14.614 18.4872 15 19 15C19.5523 15 20 14.5523 20 14V12H22L22.1166 11.9933C22.614 11.9355 23 11.5128 23 11C23 10.4477 22.5523 10 22 10H20V8L19.9933 7.88338Z" fill="#C16951"/>
</svg>
